<?xml version="1.0" encoding="UTF-8"?>
<svg version="1.1" xmlns="http://www.w3.org/2000/svg" xmlns:xlink="http://www.w3.org/1999/xlink">
<defs>
<clipPath id="clip0"><path fill="#fff" d="M0 0h500v543H0z"/></clipPath>
</defs>
<symbol id="i-hero" viewBox="0 0 500 543" fill="none" xmlns="http://www.w3.org/2000/svg"><g clip-path="url(#clip0)"><path opacity=".15" d="M193.012 543.335c19.953 0 36.129-1.703 36.129-3.804 0-2.1-16.176-3.803-36.129-3.803-19.955 0-36.131 1.703-36.131 3.803 0 2.101 16.176 3.804 36.131 3.804zM391.728 499.598H0v7.606h391.728v-7.606z" fill="#137ED9"/><path opacity=".05" d="M499.053 117.683H330.839v112.631h168.214V117.683z" fill="#137ED9"/><path opacity=".2" d="M499.062 230.314V222.328l-.113-22.706c0-19.567-.077-47.701-.124-81.987l.237.238-168.205.057.305-.304v112.631l-.276-.276 121.188.133 34.628.076H499.11h-12.284l-34.562.077-121.368.133h-.276v-.276-112.935h.314l168.204.057h.238v.237c-.057 34.353-.095 62.534-.123 82.139l-.143 22.819v5.895a272.594 272.594 0 01-.048 1.978z" fill="#137ED9"/><path opacity=".2" d="M330.839 127.733c0-.171 37.632-.304 84.031-.304 46.398 0 84.041.133 84.041.304 0 .171-37.623.304-84.041.304s-84.031-.142-84.031-.304zM336.135 124.016a1.351 1.351 0 10-.002-2.702 1.351 1.351 0 00.002 2.702zM340.755 124.016a1.35 1.35 0 100-2.7 1.35 1.35 0 000 2.7zM345.309 124.016a1.351 1.351 0 100-2.702 1.351 1.351 0 000 2.702z" fill="#137ED9"/><path opacity=".3" d="M390.178 139.475h-44.869v44.868h44.869v-44.868z" fill="#137ED9"/><path opacity=".2" d="M475.996 152.159c0 .171-17.504.304-39.087.304-21.583 0-39.087-.133-39.087-.304 0-.171 17.494-.304 39.087-.304 21.593 0 39.087.142 39.087.304zM475.996 160.498c0 .171-17.504.304-39.087.304-21.583 0-39.087-.133-39.087-.304 0-.172 17.494-.305 39.087-.305 21.593 0 39.087.143 39.087.305zM475.996 168.836c0 .171-17.504.304-39.087.304-21.583 0-39.087-.133-39.087-.304 0-.171 17.494-.305 39.087-.305 21.593 0 39.087.143 39.087.305zM444.021 177.174c-.601.091-1.208.129-1.816.114l-4.954.095c-4.183.058-9.955.086-16.334.086-6.38 0-12.151 0-16.335-.086l-4.954-.095a10.397 10.397 0 01-1.815-.114c.601-.09 1.208-.128 1.815-.114l4.954-.095c4.184-.057 9.955-.085 16.335-.085 6.379 0 12.151 0 16.334.085l4.954.095c.608-.014 1.215.024 1.816.114zM369.203 199.48h-21.088v21.089h21.088V199.48zM407.444 199.48h-21.088v21.089h21.088V199.48zM445.685 199.48h-21.088v21.089h21.088V199.48zM483.936 199.48h-21.089v21.089h21.089V199.48z" fill="#137ED9"/><path d="M262.487 109.816a9.69 9.69 0 01-1.701.114l-4.688.095c-3.984.057-9.508.095-15.783.105h-.314v-.314-3.128c0-6.989 0-13.311.095-17.904l.114-5.42a12.12 12.12 0 01.124-1.986c.095.658.136 1.322.123 1.987l.095 5.429c.058 4.583.096 10.906.096 17.903v3.128l-.314-.313c6.256 0 11.809 0 15.783.104l4.687.095a9.672 9.672 0 011.683.105zM240.448 76.1c.173 0 .314-1.813.314-4.05 0-2.236-.141-4.05-.314-4.05-.174 0-.314 1.814-.314 4.05 0 2.237.14 4.05.314 4.05zM259.842 77.56c1.56-1.559 2.725-2.923 2.602-3.045-.122-.123-1.486 1.042-3.045 2.602-1.56 1.56-2.724 2.923-2.602 3.045.122.123 1.486-1.042 3.045-2.602zM275.294 88.556c.077.162-1.454 1.075-3.327 2.216-1.874 1.14-3.395 2.072-3.499 1.901-.105-.171 1.274-1.312 3.175-2.462 1.902-1.15 3.575-1.807 3.651-1.655zM277.301 109.711c3.051 0 5.524-.14 5.524-.313 0-.174-2.473-.314-5.524-.314s-5.525.14-5.525.314c0 .173 2.474.313 5.525.313zM200.952 108.979c2.883 0 5.22-.14 5.22-.313 0-.174-2.337-.314-5.22-.314-2.883 0-5.22.14-5.22.314 0 .173 2.337.313 5.22.313zM207.648 127.764c2.286-1.841 4.051-3.444 3.942-3.578-.108-.135-2.05 1.248-4.336 3.089-2.285 1.841-4.051 3.444-3.942 3.578.109.135 2.05-1.248 4.336-3.089zM224.997 136.181c.143.105-1.169 2.121-2.681 4.659-1.512 2.539-2.691 4.631-2.852 4.555-.161-.077.77-2.321 2.31-4.878s3.062-4.44 3.223-4.336zM240.448 151.651c.173 0 .314-2.474.314-5.524 0-3.051-.141-5.525-.314-5.525-.174 0-.314 2.474-.314 5.525 0 3.05.14 5.524.314 5.524zM264.275 144.292c-.085.143-2.253-1.103-4.554-3.119-2.301-2.015-3.804-3.984-3.718-4.088.085-.105 1.844 1.645 4.127 3.622 2.281 1.978 4.249 3.432 4.145 3.585zM275.471 132.252c.122-.123-1.319-1.763-3.22-3.664-1.902-1.901-3.542-3.343-3.664-3.22-.123.122 1.319 1.763 3.22 3.663 1.901 1.902 3.542 3.344 3.664 3.221zM211.1 93.796c.123-.123-1.127-1.57-2.79-3.234-1.664-1.664-3.112-2.913-3.234-2.79-.122.122 1.127 1.57 2.79 3.233 1.664 1.664 3.111 2.913 3.234 2.79zM224.892 79.258c.122-.123-1.103-1.541-2.737-3.167-1.634-1.627-3.057-2.846-3.18-2.723-.122.123 1.103 1.541 2.737 3.167 1.634 1.627 3.057 2.846 3.18 2.723z" fill="#137ED9"/><path opacity=".05" d="M178.769 159.223H34.447v58.626H178.77v-58.626z" fill="#137ED9"/><path opacity=".3" d="M178.769 217.84V202.085l-.086-42.872.162.162-144.312.067.228-.229v58.627l-.219-.219 103.476.104 30.016.058H176.125h-7.986l-29.969.057-103.637.104h-.219v-.219-58.854h.238l144.312.067h.161v.162l-.085 42.966v14.643c-.162.789-.171 1.131-.171 1.131z" fill="#137ED9"/><path opacity=".3" d="M34.59 167.124c0-.123 32.26-.228 72.042-.228 39.781 0 72.051.105 72.051.228 0 .124-32.251.229-72.051.229-39.8 0-72.042-.058-72.042-.229zM39.591 164.634a1.047 1.047 0 10-.001-2.093 1.047 1.047 0 00.001 2.093zM43.176 164.634a1.047 1.047 0 10-.002-2.093 1.047 1.047 0 00.002 2.093zM46.712 164.634a1.047 1.047 0 10-.001-2.093 1.047 1.047 0 00.002 2.093z" fill="#137ED9"/><path opacity=".2" d="M81.569 176.651H46.712v34.856H81.57v-34.856z" fill="#137ED9"/><path opacity=".3" d="M168.833 185.998c0 .123-17.942.228-40.057.228-22.116 0-40.067-.105-40.067-.228 0-.124 17.932-.228 40.067-.228s40.057.095 40.057.228zM168.833 193.1c0 .123-17.942.228-40.057.228-22.116 0-40.067-.105-40.067-.228 0-.124 17.932-.228 40.067-.228s40.057.095 40.057.228zM140.243 200.193c-.175.02-.35.02-.523 0h-1.503l-5.524.076-18.236.067-18.237-.067-5.524-.076h-1.502c-.174.02-.35.02-.523 0 .174-.02.349-.02.523 0h1.502l5.524-.076 18.237-.066 18.236.066 5.524.076h1.503c.173-.02.348-.02.523 0zM81.15 117.712h-7.768v25.11h7.768v-25.11zM95.46 107.376h-7.768v35.446h7.767v-35.446zM110.682 102.546h-7.768v40.267h7.768v-40.267zM125.914 97.46h-7.768v45.362h7.768V97.459z" fill="#137ED9"/><path opacity=".3" fill-rule="evenodd" clip-rule="evenodd" d="M458.987 242.665a17.872 17.872 0 013.879 2.729l4.145-1.474 3.898 6.152-3.109 3.118c.48 1.516.755 3.089.818 4.678l3.974 1.902-1.597 7.102h-4.402a17.838 17.838 0 01-2.739 3.88l1.474 4.145-6.152 3.898-3.109-3.109a17.864 17.864 0 01-4.678.818l-1.901 3.974-7.102-1.597v-4.403a17.746 17.746 0 01-3.879-2.738l-4.146 1.474-3.899-6.152 3.11-3.118a17.878 17.878 0 01-.818-4.678l-3.974-1.902 1.597-7.102h4.402a17.78 17.78 0 012.738-3.879l-1.511-4.136 6.151-3.899 3.119 3.11a17.837 17.837 0 014.678-.818l1.902-3.975 7.102 1.598v4.402h.029zm-6.266 8.357a7.821 7.821 0 00-8.105 3.127 7.82 7.82 0 00-.21 8.684 7.817 7.817 0 0014.229-2.483 7.818 7.818 0 00-5.914-9.328zM382.505 247.115c.821.426 1.582.96 2.263 1.587l2.415-.855 2.272 3.584-1.807 1.816c.279.882.439 1.796.476 2.719l2.31 1.103-.95 4.136h-2.558c-.426.822-.96 1.583-1.588 2.263l.856 2.415-3.585 2.272-1.816-1.806c-.881.279-1.796.439-2.719.476l-1.103 2.31-4.136-.951v-2.557a10.422 10.422 0 01-2.263-1.588l-2.415.856-2.272-3.585 1.806-1.816a10.476 10.476 0 01-.475-2.719l-2.292-1.056.952-4.135h2.557c.426-.822.96-1.583 1.588-2.264l-.856-2.414 3.584-2.273 1.816 1.806a10.434 10.434 0 012.72-.475l1.102-2.31 4.137.95v2.558l-.019-.047zm-3.651 4.868a4.547 4.547 0 00-5.537 4.326 4.55 4.55 0 002.704 4.265 4.544 4.544 0 006.275-3.162 4.548 4.548 0 00-3.433-5.429h-.009z" fill="#137ED9"/><path d="M107.763 289.263h177.856a29.229 29.229 0 0129.227 29.209v99.643H78.506v-99.643a29.238 29.238 0 018.578-20.665 29.232 29.232 0 0120.679-8.544z" fill="#fff"/><path d="M325.181 349.933h25.253a12.99 12.99 0 0112.988 12.988v101.497h-50.306V362.009a12.068 12.068 0 0112.065-12.076zM43.908 349.933h23.475a12.293 12.293 0 0112.303 12.275v102.21H32.869V360.963a11.028 11.028 0 0111.03-11.03h.009z" fill="#137ED9"/><path d="M83.08 403.672h227.297a14.88 14.88 0 0114.881 14.88v5.933H68.704v-6.437a14.375 14.375 0 0114.377-14.376z" fill="#137ED9"/><path d="M354.57 349.933h-15.355a13.966 13.966 0 00-13.967 13.968v58.825H68.704v-57.665a15.214 15.214 0 00-15.212-15.213H38.184a13.969 13.969 0 00-13.967 13.967v124.516a2.014 2.014 0 002.015 2.015h42.472v-26.003h256.544v26.003h42.471a2.016 2.016 0 002.017-2.015v-123.27a15.21 15.21 0 00-4.47-10.685 15.21 15.21 0 00-10.696-4.443z" fill="#fff"/><path opacity=".3" d="M354.57 349.933h-15.355a13.966 13.966 0 00-13.967 13.968v58.825H68.704v-57.665a15.214 15.214 0 00-15.212-15.213H38.184a13.969 13.969 0 00-13.967 13.967v124.516a2.014 2.014 0 002.015 2.015h42.472v-26.003h256.544v26.003h42.471a2.016 2.016 0 002.017-2.015v-123.27a15.21 15.21 0 00-4.47-10.685 15.21 15.21 0 00-10.696-4.443z" fill="#137ED9"/><path opacity=".3" d="M107.763 289.263h177.856a29.229 29.229 0 0129.227 29.209v99.643H78.506v-99.643a29.238 29.238 0 018.578-20.665 29.232 29.232 0 0120.679-8.544z" fill="#137ED9"/><path d="M362.804 492.856v-2.31h-32.355v2.31h-4.041v6.942h40.446v-6.942h-4.05zM62.353 492.856v-2.31H29.988v2.31h-4.04v6.942h40.446v-6.942h-4.04zM278.63 342.023a354.808 354.808 0 00-23.389-40.456c-2.663-3.975-5.534-8.016-9.651-10.459-3.689-2.168-8.053-2.853-12.36-3.262-10.459-1.045-21.041-.883-31.576-.722-16.268.238-32.64.495-48.566 3.803a16.594 16.594 0 00-5.049 1.674 17.103 17.103 0 00-4.697 4.754A215.394 215.394 0 00121.474 333a159.405 159.405 0 00-7.977 19.016c-2.083 6.208-5.439 12.036-5.781 18.778-.314 6.437 2.557 13.482 8.443 16.106 7.406 3.3 15.888-1.378 23.988-.951v-2.367l14.139-1.179-1.17 21.222 12.361-16.335a7.6 7.6 0 016.883-4.05l50.012-4.46c5.153-.456 10.335-.95 15.479-.38 7.463.78 14.528 3.623 21.782 5.525 7.255 1.901 15.213 2.852 22.078-.143a7.856 7.856 0 002.947-1.902 8.394 8.394 0 001.598-3.613c3.023-12.313-2.054-24.949-7.626-36.244zm-35.902 26.232v-22.391l9.423 16.496-9.423 5.895z" fill="#137ED9"/><path d="M154.352 343.506l-10.611 18.854 10.611 7.074v-25.928z" fill="#fff"/><path d="M157.889 369.434s2.254-14.614 25.424-11.999a1.904 1.904 0 011.683 1.901 1.901 1.901 0 01-1.845 1.902c-3.917 0-12.616.485-11.704 4.146h16.05a1.623 1.623 0 011.626 1.625v3.747a2.853 2.853 0 01-2.853 2.852.658.658 0 00-.656.656v1.768a2.026 2.026 0 01-2.215 2.026c-4.288-.399-13.387-.694-14.262 3.803h-8.253s-1.226-12.997-2.995-12.427zM237.423 377.088l-1.179-7.074s-3.299-8.804-22.657-6.209a2.407 2.407 0 00-2.083 2.377v1.474h-1.787a1.766 1.766 0 00-1.768 1.768 1.762 1.762 0 00.518 1.251c.164.165.359.294.573.384.214.088.445.134.677.134h10.012v2.358h-9.508a2.312 2.312 0 10.095 4.621l27.107-1.084z" fill="#F5B58F"/><path d="M141.973 397.388l-6.466-61.887a4.958 4.958 0 011.046-3.992 4.949 4.949 0 013.708-1.809l97.723-2.262a4.941 4.941 0 015.001 5.704l1.351 58.741s-37.804 2.766-54.272 3.013c0 .01-30.929 7.16-48.091 2.492z" fill="#fff"/><path opacity=".2" d="M141.973 397.388l-6.466-61.887a4.958 4.958 0 011.046-3.992 4.949 4.949 0 013.708-1.809l97.723-2.262a4.941 4.941 0 015.001 5.704l1.351 58.741s-37.804 2.766-54.272 3.013c0 .01-30.929 7.16-48.091 2.492z" fill="#137ED9"/><path opacity=".2" d="M190.387 354.079c3.818 0 6.912-1.856 6.912-4.146 0-2.289-3.094-4.145-6.912-4.145-3.817 0-6.912 1.856-6.912 4.145 0 2.29 3.095 4.146 6.912 4.146z" fill="#137ED9"/><path d="M141.393 385.931s-32.992 2.357-38.888 9.422c-5.895 7.064 1.18 17.675 20.033 11.78 18.855-5.895 23.571-9.422 23.571-9.422l-4.716-11.78z" fill="#000D44"/><path d="M186.166 273.984l-1.17 16.496a16.966 16.966 0 0012.959 9.423l1.607 3.556a2.573 2.573 0 002.241 1.512 2.573 2.573 0 002.352-1.332l2.053-3.746s9.632-4.469 10.706-12.836l-1.283-16.619-29.465 3.546z" fill="#F5B58F"/><path d="M282.719 383.572h-1.112a25.43 25.43 0 00-16.278-5.894H236.14l-81.769 4.753v-.075l-14.138 1.178-1.179 23.571h14.138s107.231 12.959 113.145 12.959c5.914 0 29.417-7.036 16.382-36.492z" fill="#1B255E"/><path d="M177.39 537.734l23.037-4.221c-4.002-20.233-5.885-40.818-7.758-61.355l-4.753-51.628c-.743-8.158-1.741-16.924-7.179-23.047a19.57 19.57 0 00-13.577-6.475c-5.496-.248-10.726 1.902-15.375 4.601-4.649 2.701-6.246 5.753-7.302 11.039-.894 4.488.105 9.109 1.132 13.568 9.118 39.544 20.318 78.564 31.595 117.547l.18-.029z" fill="#1B255E"/><path d="M221.516 251.602s7.179 6.2-4.753 8.253l-1.18 10.601-31.956-.589 1.056-7.112s-11.515 6.523-7.978-8.795l1.208-10.601 10.601-10.601 17.676 3.537 15.317 8.252.009 7.055z" fill="#F5B58F"/><path d="M183.808 258.648a8.685 8.685 0 00.684-3.071 2.95 2.95 0 00-1.473-2.624 3.567 3.567 0 00-1.645-.267c-1.6.047-3.165.478-4.564 1.255-.703.39-3.413-5.476-3.622-6.085a14.858 14.858 0 01-.818-7.435c.951-4.364 5.238-8.291 9.156-10.031.371-3.309-.647-6.788.485-9.926a7.607 7.607 0 0110.763-4.117c1.701.951 3.024 2.463 4.82 3.166a8.356 8.356 0 005.705-.152 56.796 56.796 0 005.286-2.425 17.112 17.112 0 016.656-1.739 9.38 9.38 0 016.409 2.11c3.023 2.644 3.46 7.122 3.403 11.134-.057 4.012-.304 8.329 1.902 11.694a8.935 8.935 0 011.359 2.349 6.018 6.018 0 01-.684 3.803c-1.255 2.967-2.852 6.228-5.895 7.264a10.79 10.79 0 01-3.547.409 4.495 4.495 0 01-3.27-.951c-.761-.77-.885-1.948-1.388-2.909a3.987 3.987 0 00-3.965-2.025c.523 2.11-1.797 4.069-3.975 4.022-2.177-.048-4.078-1.407-5.79-2.767-4.278-3.394-8.31-7.103-12.36-10.791.437 5.21.874 10.515-.295 15.602-.523 1.968-1.464 4.069-3.337 4.507zM184.996 262.204s1.179 12.959 8.253 4.754c0 0 9.422-2.358 14.138 1.179 4.716 3.537 9.423-8.253 9.423-8.253s1.179 22.391-7.074 24.72c-8.253 2.33-19.292 1.436-23.77-7.53-4.478-8.966-.97-14.87-.97-14.87z" fill="#000D44"/><g opacity=".5" fill="#137ED9"><path opacity=".5" d="M233.201 277.416a13.547 13.547 0 01-1.179 5.458c-.161 0 0-1.274.305-2.786.304-1.512.723-2.719.874-2.672zM237.214 267.024a13.55 13.55 0 01-2.282 5.087c-.152-.057.238-1.246.875-2.662.637-1.417 1.264-2.501 1.407-2.425zM243.356 257.735a7.017 7.017 0 01-1.426 2.415 7.611 7.611 0 01-1.902 2.073c-.152-.105.495-1.17 1.417-2.415.922-1.246 1.788-2.187 1.911-2.073zM249.142 251.728c1.061-1.114 1.825-2.108 1.708-2.22-.118-.112-1.074.7-2.135 1.814-1.062 1.114-1.826 2.108-1.708 2.22.118.113 1.073-.699 2.135-1.814zM256.948 243.713c1.08-1.096 1.861-2.077 1.746-2.191-.116-.114-1.086.681-2.166 1.777-1.079 1.096-1.861 2.077-1.745 2.192.116.114 1.085-.682 2.165-1.778zM264.5 235.498c.975-1.19 1.665-2.237 1.539-2.341-.126-.103-1.019.777-1.995 1.967-.976 1.189-1.665 2.237-1.539 2.34.125.104 1.019-.777 1.995-1.966zM271.728 223.564a5.987 5.987 0 01-.951 2.652c-.713 1.379-1.483 2.387-1.616 2.301a8.16 8.16 0 011.102-2.567 8.29 8.29 0 011.465-2.386zM274.437 212.782a9.838 9.838 0 01-.95 5.495c.081-1.865.401-3.711.95-5.495zM273.61 201.705a9.854 9.854 0 01.856 5.505 21.886 21.886 0 01-.856-5.505zM269.236 191.502c.134-.085.952.885 1.683 2.254.531.792.859 1.703.952 2.653a8.71 8.71 0 01-1.465-2.377 8.84 8.84 0 01-1.17-2.53zM261.45 183.582a5.71 5.71 0 012.405 1.465c1.198.998 1.977 2.006 1.902 2.11-.076.105-1.065-.693-2.235-1.663-1.169-.97-2.158-1.769-2.072-1.912zM251.314 179.057c1.9.061 3.738.69 5.277 1.806-1.823-.393-3.595-1-5.277-1.806zM240.238 178.553a9.177 9.177 0 015.561-.295 9.047 9.047 0 01-2.775.295 9.228 9.228 0 01-2.786 0zM229.95 182.651c-.095-.124.865-.951 2.244-1.712a5.52 5.52 0 012.662-.95 9.486 9.486 0 01-2.387 1.435 9.312 9.312 0 01-2.519 1.227zM222.286 190.675a5.65 5.65 0 011.37-2.462c.951-1.236 1.901-2.044 2.054-1.902.151.143-.657 1.084-1.588 2.292-.932 1.207-1.693 2.158-1.836 2.072zM218.531 201.096a5.5 5.5 0 01.218-2.852 5.554 5.554 0 011.094-2.605 9.378 9.378 0 01-.523 2.738 9.583 9.583 0 01-.789 2.719zM219.862 212.068a5.589 5.589 0 01-1.094-2.605 5.526 5.526 0 01-.228-2.853 9.5 9.5 0 01.789 2.673c.319.896.499 1.835.533 2.785zM225.51 221.624c-.114.104-1.046-.77-1.95-2.035a5.84 5.84 0 01-1.302-2.5c.143-.086.875.95 1.769 2.158a8.463 8.463 0 011.483 2.377zM233.724 229.097a6.171 6.171 0 01-2.405-1.464c-1.207-.951-2.044-1.902-1.902-2.044.143-.143 1.113.627 2.301 1.588 1.189.96 2.101 1.834 2.006 1.92zM243.394 234.688c-.067.142-1.236-.305-2.615-1.008-1.378-.704-2.433-1.388-2.358-1.521a13.532 13.532 0 014.973 2.529zM254.005 238.063a10.561 10.561 0 01-5.4-1.36c1.858.195 3.678.662 5.4 1.389v-.029zM265.11 238.605a10.006 10.006 0 01-5.571.114 8.401 8.401 0 012.785-.238 8.493 8.493 0 012.786.124zM275.844 235.753a9.771 9.771 0 01-5.247 1.901 22.262 22.262 0 015.247-1.901zM285.143 229.677c.105.114-.741 1.065-1.977 2.007a5.96 5.96 0 01-2.453 1.387c-.086-.133.884-.951 2.091-1.844 1.208-.894 2.234-1.673 2.339-1.55zM292.436 221.234a6.062 6.062 0 01-1.369 2.463c-.951 1.245-1.902 2.11-1.978 2.006a8.236 8.236 0 011.445-2.311c.951-1.264 1.731-2.243 1.902-2.158zM297.19 211.213a10.351 10.351 0 01-2.082 5.172 19.684 19.684 0 012.082-5.172zM299.396 200.288a10.704 10.704 0 01-.761 5.524 18.575 18.575 0 01.761-5.524zM299.092 189.164c.161 0 .389 1.217.503 2.757.115 1.54.086 2.805-.076 2.805a13.544 13.544 0 01-.427-5.562zM296.686 178.258a13.56 13.56 0 011.455 5.391 13.572 13.572 0 01-1.455-5.391zM292.436 167.961a6.84 6.84 0 011.483 2.387c.467.822.762 1.731.865 2.671a6.957 6.957 0 01-1.388-2.433 7.081 7.081 0 01-.96-2.625zM289.748 163.045c.14-.082-.377-1.225-1.156-2.552-.778-1.328-1.523-2.337-1.663-2.255-.141.083.377 1.226 1.155 2.553s1.523 2.336 1.664 2.254zM284.088 153.423c.143-.079-.345-1.234-1.09-2.58-.745-1.347-1.464-2.374-1.607-2.295-.143.079.346 1.234 1.091 2.58s1.464 2.374 1.606 2.295zM277.033 138.297a13.513 13.513 0 011.902 5.219c-.143.067-.704-1.055-1.246-2.51-.542-1.455-.808-2.662-.656-2.709zM275.141 127.362c.321.881.489 1.81.494 2.748.193.919.224 1.865.096 2.795a10.458 10.458 0 01-.59-5.543zM276.063 116.238a8.14 8.14 0 01-.199 2.786 8.137 8.137 0 01-.609 2.729c-.233-1.881.046-3.79.808-5.525v.01zM279.695 105.713a8.17 8.17 0 01-.894 2.652 8.116 8.116 0 01-1.264 2.491c.237-1.877.98-3.655 2.149-5.143h.009zM285.914 96.48c.123.105-.618 1.113-1.55 2.33s-1.731 2.167-1.902 2.082a6.034 6.034 0 011.417-2.434c.95-1.236 1.902-2.082 2.035-1.977z"/></g><path d="M176.61 539.531h25.738a8.622 8.622 0 000-7.844c-2.092-4.402-14.261-9.907-21.031-3.527-2.482 2.339-5.572 7.083-5.572 8.623.023.98.323 1.932.865 2.748z" fill="#000D44"/></g></symbol>
<symbol id="i-js" viewBox="0 0 256 282" xmlns="http://www.w3.org/2000/svg" preserveAspectRatio="xMinYMin meet"><g fill="#8CC84B"><path d="M116.504 3.58c6.962-3.985 16.03-4.003 22.986 0 34.995 19.774 70.001 39.517 104.99 59.303 6.581 3.707 10.983 11.031 10.916 18.614v118.968c.049 7.897-4.788 15.396-11.731 19.019-34.88 19.665-69.742 39.354-104.616 59.019-7.106 4.063-16.356 3.75-23.24-.646-10.457-6.062-20.932-12.094-31.39-18.15-2.137-1.274-4.546-2.288-6.055-4.36 1.334-1.798 3.719-2.022 5.657-2.807 4.365-1.388 8.374-3.616 12.384-5.778 1.014-.694 2.252-.428 3.224.193 8.942 5.127 17.805 10.403 26.777 15.481 1.914 1.105 3.852-.362 5.488-1.274 34.228-19.345 68.498-38.617 102.72-57.968 1.268-.61 1.969-1.956 1.866-3.345.024-39.245.006-78.497.012-117.742.145-1.576-.767-3.025-2.192-3.67-34.759-19.575-69.5-39.18-104.253-58.76a3.621 3.621 0 00-4.094-.006C91.2 39.257 56.465 58.88 21.712 78.454c-1.42.646-2.373 2.071-2.204 3.653.006 39.245 0 78.497 0 117.748a3.329 3.329 0 001.89 3.303c9.274 5.259 18.56 10.481 27.84 15.722 5.228 2.814 11.647 4.486 17.407 2.33 5.083-1.823 8.646-7.01 8.549-12.407.048-39.016-.024-78.038.036-117.048-.127-1.732 1.516-3.163 3.2-3 4.456-.03 8.918-.06 13.374.012 1.86-.042 3.14 1.823 2.91 3.568-.018 39.263.048 78.527-.03 117.79.012 10.464-4.287 21.85-13.966 26.97-11.924 6.177-26.662 4.867-38.442-1.056-10.198-5.09-19.93-11.097-29.947-16.55C5.368 215.886.555 208.357.604 200.466V81.497c-.073-7.74 4.504-15.197 11.29-18.85C46.768 42.966 81.636 23.27 116.504 3.58z"/><path d="M146.928 85.99c15.21-.979 31.493-.58 45.18 6.913 10.597 5.742 16.472 17.793 16.659 29.566-.296 1.588-1.956 2.464-3.472 2.355-4.413-.006-8.827.06-13.24-.03-1.872.072-2.96-1.654-3.195-3.309-1.268-5.633-4.34-11.212-9.642-13.929-8.139-4.075-17.576-3.87-26.451-3.785-6.479.344-13.446.905-18.935 4.715-4.214 2.886-5.494 8.712-3.99 13.404 1.418 3.369 5.307 4.456 8.489 5.458 18.33 4.794 37.754 4.317 55.734 10.626 7.444 2.572 14.726 7.572 17.274 15.366 3.333 10.446 1.872 22.932-5.56 31.318-6.027 6.901-14.805 10.657-23.56 12.697-11.647 2.597-23.734 2.663-35.562 1.51-11.122-1.268-22.696-4.19-31.282-11.768-7.342-6.375-10.928-16.308-10.572-25.895.085-1.619 1.697-2.748 3.248-2.615 4.444-.036 8.888-.048 13.332.006 1.775-.127 3.091 1.407 3.182 3.08.82 5.367 2.837 11 7.517 14.182 9.032 5.827 20.365 5.428 30.707 5.591 8.568-.38 18.186-.495 25.178-6.158 3.689-3.23 4.782-8.634 3.785-13.283-1.08-3.925-5.186-5.754-8.712-6.95-18.095-5.724-37.736-3.647-55.656-10.12-7.275-2.571-14.31-7.432-17.105-14.906-3.9-10.578-2.113-23.662 6.098-31.765 8.006-8.06 19.563-11.164 30.551-12.275z"/></g></symbol>
<symbol id="i-laravel" viewBox="0 -0.114 49.742 51.317" xmlns="http://www.w3.org/2000/svg"><path d="M49.626 11.564a.809.809 0 01.028.209v10.972a.8.8 0 01-.402.694l-9.209 5.302V39.25c0 .286-.152.55-.4.694L20.42 51.01c-.044.025-.092.041-.14.058-.018.006-.035.017-.054.022a.805.805 0 01-.41 0c-.022-.006-.042-.018-.063-.026-.044-.016-.09-.03-.132-.054L.402 39.944A.801.801 0 010 39.25V6.334c0-.072.01-.142.028-.21.006-.023.02-.044.028-.067.015-.042.029-.085.051-.124.015-.026.037-.047.055-.071.023-.032.044-.065.071-.093.023-.023.053-.04.079-.06.029-.024.055-.05.088-.069h.001l9.61-5.533a.802.802 0 01.8 0l9.61 5.533h.002c.032.02.059.045.088.068.026.02.055.038.078.06.028.029.048.062.072.094.017.024.04.045.054.071.023.04.036.082.052.124.008.023.022.044.028.068a.809.809 0 01.028.209v20.559l8.008-4.611v-10.51c0-.07.01-.141.028-.208.007-.024.02-.045.028-.068.016-.042.03-.085.052-.124.015-.026.037-.047.054-.071.024-.032.044-.065.072-.093.023-.023.052-.04.078-.06.03-.024.056-.05.088-.069h.001l9.611-5.533a.801.801 0 01.8 0l9.61 5.533c.034.02.06.045.09.068.025.02.054.038.077.06.028.029.048.062.072.094.018.024.04.045.054.071.023.039.036.082.052.124.009.023.022.044.028.068zm-1.574 10.718v-9.124l-3.363 1.936-4.646 2.675v9.124l8.01-4.611zm-9.61 16.505v-9.13l-4.57 2.61-13.05 7.448v9.216zM1.602 7.719v31.068L19.22 48.93v-9.214l-9.204-5.209-.003-.002-.004-.002c-.031-.018-.057-.044-.086-.066-.025-.02-.054-.036-.076-.058l-.002-.003c-.026-.025-.044-.056-.066-.084-.02-.027-.044-.05-.06-.078l-.001-.003c-.018-.03-.029-.066-.042-.1-.013-.03-.03-.058-.038-.09v-.001c-.01-.038-.012-.078-.016-.117-.004-.03-.012-.06-.012-.09V12.33L4.965 9.654 1.602 7.72zm8.81-5.994L2.405 6.334l8.005 4.609 8.006-4.61-8.006-4.608zm4.164 28.764l4.645-2.674V7.719l-3.363 1.936-4.646 2.675v20.096zM39.243 7.164l-8.006 4.609 8.006 4.609 8.005-4.61zm-.801 10.605l-4.646-2.675-3.363-1.936v9.124l4.645 2.674 3.364 1.937zM20.02 38.33l11.743-6.704 5.87-3.35-8-4.606-9.211 5.303-8.395 4.833z" fill="#ff2d20"/></symbol>
<symbol id="i-nestjs" viewBox="6.006 4.24 275.796 249.238" xmlns="http://www.w3.org/2000/svg"><path d="M153.338 4.24c-1.809 0-3.489.388-5.04.905 3.296 2.197 5.105 5.105 6.01 8.4.065.453.194.776.258 1.228.065.388.13.775.13 1.163.258 5.687-1.487 6.397-2.715 9.758-1.874 4.33-1.357 8.982.905 12.73.194.452.452.969.776 1.421-2.456-16.348 11.179-18.804 13.699-23.909.194-4.459-3.49-7.431-6.397-9.499-2.78-1.68-5.3-2.197-7.626-2.197zm20.55 3.683c-.26 1.487-.065 1.099-.13 1.874-.064.517-.064 1.163-.129 1.68-.129.517-.258 1.034-.452 1.551-.13.517-.323 1.034-.517 1.551-.259.517-.452.97-.71 1.486-.195.259-.324.517-.518.776l-.388.581a22.32 22.32 0 01-.969 1.293c-.388.388-.71.84-1.163 1.163v.065c-.388.323-.775.71-1.228 1.034-1.357 1.033-2.908 1.809-4.33 2.778-.452.323-.904.582-1.292.97-.452.323-.84.646-1.227 1.033-.453.388-.776.776-1.164 1.228-.323.388-.71.84-.969 1.293-.323.452-.646.904-.905 1.357-.258.517-.452.969-.71 1.486-.194.517-.388.97-.517 1.486a20.921 20.921 0 00-.453 1.616c-.064.258-.064.581-.129.84-.065.258-.065.517-.129.775 0 .517-.065 1.099-.065 1.616 0 .387 0 .775.065 1.163 0 .517.065 1.034.194 1.615.065.517.194 1.034.323 1.551.194.517.323 1.034.517 1.55.13.324.323.647.452.906l-14.862-5.752c-2.52-.71-4.976-1.357-7.496-1.938l-4.071-.97a119.971 119.971 0 00-11.76-1.744c-.13 0-.195-.065-.324-.065-3.877-.388-7.69-.581-11.567-.581-2.843 0-5.686.129-8.465.323-3.942.258-7.884.775-11.825 1.421-.97.13-1.94.323-2.908.517-2.004.388-3.942.84-5.816 1.293l-2.908.775c-.97.388-1.874.84-2.779 1.228l-2.132.97c-.13.064-.259.064-.323.128-.646.323-1.228.582-1.81.905-.193.065-.323.13-.452.194-.71.323-1.421.71-2.003 1.034-.452.194-.905.452-1.292.646-.194.13-.453.259-.582.323-.582.323-1.163.646-1.68.97-.582.322-1.099.646-1.551.969s-.905.581-1.292.904c-.065.065-.13.065-.194.13-.388.258-.84.581-1.228.904l-.13.13-.968.775c-.13.064-.26.194-.388.258-.323.259-.646.582-.97.84-.064.13-.193.194-.258.259-.388.388-.775.71-1.163 1.098-.065 0-.065.065-.13.13-.387.323-.775.71-1.163 1.098-.064.065-.064.13-.129.13a15.16 15.16 0 00-.969 1.033c-.13.13-.323.259-.452.388-.323.388-.711.775-1.099 1.163-.065.13-.194.194-.258.323-.517.517-.97 1.034-1.487 1.551l-.193.194c-1.034 1.098-2.133 2.197-3.296 3.166a36.732 36.732 0 01-3.619 2.843 48.856 48.856 0 01-3.877 2.456 39.382 39.382 0 01-4.071 1.939 46.55 46.55 0 01-4.2 1.55c-2.714.582-5.493 1.68-7.884 1.874-.517 0-1.098.13-1.615.194-.582.13-1.099.259-1.616.388l-1.55.582c-.518.193-1.035.452-1.552.71-.452.323-.969.582-1.421.905-.453.323-.905.71-1.293 1.099-.452.323-.904.775-1.292 1.163-.388.452-.775.84-1.099 1.292-.323.517-.71.97-.969 1.486-.323.453-.646.97-.904 1.487-.26.581-.517 1.098-.711 1.68a49.803 49.803 0 00-.582 1.68c-.129.517-.258 1.034-.323 1.55 0 .066-.065.13-.065.195-.129.581-.129 1.357-.194 1.744-.064.453-.129.84-.129 1.293 0 .258 0 .581.065.84.065.452.13.84.259 1.228.129.387.258.775.452 1.163v.064c.194.388.452.776.71 1.164.26.387.518.775.84 1.163.324.323.712.71 1.1 1.034.387.387.775.71 1.227 1.034 1.551 1.357 1.939 1.809 3.942 2.843.323.194.646.323 1.034.517.065 0 .129.064.194.064 0 .13 0 .194.064.324.065.517.194 1.034.324 1.55a8.71 8.71 0 00.516 1.551c.194.388.324.776.517 1.164.065.129.13.258.194.323.259.517.517.969.776 1.421l.969 1.357c.323.388.71.84 1.099 1.228.387.388.775.71 1.227 1.099 0 0 .065.064.13.064.387.323.775.647 1.163.905.452.323.904.582 1.421.84.453.259.97.517 1.487.71.387.195.84.324 1.292.453.065.065.129.065.258.13.26.064.582.129.84.193-.193 3.49-.258 6.785.26 7.948.58 1.293 3.424-2.649 6.267-7.172-.388 4.458-.646 9.693 0 11.243.711 1.616 4.588-3.424 7.948-8.982C88.397 104.336 130.206 136 134.6 180.716c-.84-6.979-9.435-10.856-13.377-9.887-1.938 4.782-5.234 10.921-10.533 14.734a41.434 41.434 0 00-.646-12.924c-1.421 5.945-4.2 11.502-8.013 16.284-6.138.452-12.277-2.52-15.508-6.98-.259-.193-.323-.58-.517-.84-.194-.452-.388-.904-.517-1.356a5.365 5.365 0 01-.388-1.357c-.065-.453-.065-.905-.065-1.422v-.97c.065-.452.194-.904.323-1.356.13-.453.259-.905.453-1.357.258-.453.452-.905.775-1.357 1.099-3.102 1.099-5.622-.904-7.108a7.36 7.36 0 00-1.228-.647c-.259-.064-.582-.193-.84-.258-.194-.065-.323-.13-.517-.194-.453-.13-.905-.259-1.357-.323a4.923 4.923 0 00-1.357-.194c-.453-.065-.97-.13-1.422-.13-.323 0-.646.066-.97.066a5.04 5.04 0 00-1.42.193c-.453.065-.905.13-1.358.259-.452.13-.905.259-1.357.452-.452.194-.84.388-1.292.582-.388.194-.776.452-1.228.646-15.056 9.822-6.074 32.827 4.2 39.483-3.877.71-7.819 1.55-8.917 2.39l-.13.13c2.78 1.68 5.687 3.102 8.724 4.33a214.507 214.507 0 0010.469 3.101v.065a62.516 62.516 0 0016.284 1.163c28.626-2.003 52.083-23.78 56.348-52.471.13.581.259 1.098.388 1.68.194 1.163.452 2.39.581 3.619v.064c.13.582.194 1.164.259 1.68v.26c.065.58.13 1.162.13 1.68.064.71.128 1.42.128 2.132v1.034c0 .323.065.71.065 1.033 0 .388-.065.776-.065 1.164v.904c0 .453-.065.84-.065 1.293 0 .258 0 .517-.064.84 0 .452-.065.904-.065 1.421-.065.194-.065.388-.065.582-.064.517-.129.97-.194 1.486 0 .194 0 .388-.064.582-.065.646-.194 1.228-.259 1.874v.129c-.129.582-.258 1.228-.388 1.81v.193l-.387 1.745c0 .065-.065.194-.065.259-.13.581-.259 1.163-.452 1.744v.194c-.194.647-.388 1.228-.517 1.81-.065.064-.065.129-.065.129l-.582 1.938c-.258.647-.452 1.228-.71 1.874-.259.647-.453 1.293-.711 1.874-.259.647-.517 1.228-.776 1.874h-.064c-.26.582-.517 1.228-.84 1.81-.065.194-.13.323-.194.452-.065.065-.065.13-.13.194-4.2 8.465-10.403 15.896-18.158 21.712-.517.323-1.034.71-1.55 1.099-.13.129-.324.193-.453.323a27.34 27.34 0 01-1.421.969l.193.388h.065l2.714-.388h.065c1.68-.259 3.36-.582 5.04-.905.452-.065.97-.194 1.422-.323.323-.065.581-.129.904-.194.453-.064.905-.194 1.357-.258.388-.13.776-.194 1.164-.323 6.462-1.551 12.73-3.684 18.74-6.204-10.275 14.023-24.04 25.331-40.13 32.762 7.432-.517 14.863-1.744 22.036-3.812 26.042-7.69 47.948-25.202 61.065-48.788a103.145 103.145 0 01-17.382 41.55 101.732 101.732 0 0017.253-14.345c14.475-15.121 23.974-34.313 27.205-54.927a102.9 102.9 0 011.874 31.147c46.655-65.072 3.877-132.535-14.023-150.305-.064-.13-.129-.194-.129-.323-.064.064-.064.064-.064.129 0-.065 0-.065-.065-.13 0 .776-.065 1.551-.13 2.327-.193 1.486-.387 2.908-.646 4.33-.323 1.421-.71 2.843-1.098 4.264a53.747 53.747 0 01-1.55 4.136 55.49 55.49 0 01-1.94 3.942c-.71 1.227-1.486 2.52-2.326 3.683a49.368 49.368 0 01-2.65 3.49c-.969 1.163-2.002 2.197-3.036 3.23a41.646 41.646 0 01-1.874 1.616c-.517.452-.97.84-1.487 1.292-1.163.905-2.326 1.745-3.618 2.52-1.228.776-2.52 1.551-3.813 2.198-1.357.646-2.714 1.227-4.07 1.809-1.358.517-2.78.97-4.201 1.357a52.05 52.05 0 01-4.33.97c-1.486.258-2.972.387-4.394.516-1.034.065-2.068.13-3.102.13-1.486 0-2.972-.13-4.394-.26-1.486-.128-2.972-.322-4.394-.645-1.486-.26-2.908-.647-4.33-1.099h-.064c1.422-.13 2.843-.259 4.265-.517a46.84 46.84 0 004.33-.97 45.495 45.495 0 004.2-1.356c1.421-.517 2.778-1.163 4.07-1.81 1.358-.646 2.586-1.357 3.878-2.132 1.228-.84 2.455-1.68 3.619-2.585a35.333 35.333 0 003.295-2.908c1.099-.97 2.068-2.068 3.037-3.166a63.86 63.86 0 002.714-3.49c.13-.193.259-.452.388-.646.646-1.034 1.292-2.068 1.874-3.102a44.537 44.537 0 001.939-3.941 45.28 45.28 0 001.55-4.136c.453-1.357.776-2.779 1.099-4.2.259-1.486.517-2.908.646-4.33.13-1.486.259-2.972.259-4.394 0-1.034-.065-2.068-.13-3.102-.128-1.486-.322-2.907-.516-4.33a46.844 46.844 0 00-.97-4.329c-.452-1.357-.904-2.778-1.421-4.135s-1.163-2.714-1.81-4.007c-.71-1.292-1.421-2.584-2.197-3.812a71.347 71.347 0 00-2.584-3.554 136.72 136.72 0 00-2.973-3.296 40.422 40.422 0 00-1.68-1.615 118.979 118.979 0 00-8.982-6.333c-.452-.259-.84-.452-1.293-.646-2.132-1.357-4.135-2.068-6.138-2.714z" fill="#e0234e" fill-rule="evenodd"/></symbol>
<symbol id="i-nextjs" preserveAspectRatio="xMidYMid" viewBox="0 0 512 308.883" xmlns="http://www.w3.org/2000/svg"><path d="M120.81 80.561h96.568v7.676h-87.716v57.767h82.486v7.675h-82.486v63.423h88.722v7.675H120.81zm105.22 0h10.26l45.467 63.423L328.23 80.56 391.441 0l-103.85 150.65 53.515 74.127h-10.663l-48.686-67.462-48.888 67.462h-10.461l53.917-74.128zm118.898 7.676V80.56h110.048v7.676h-50.699v136.54h-8.852V88.237zM0 80.56h11.065l152.58 228.323-63.053-84.107L9.254 91.468l-.402 133.31H0zm454.084 134.224c-1.809 0-3.165-1.4-3.165-3.212 0-1.81 1.356-3.212 3.165-3.212 1.83 0 3.165 1.401 3.165 3.212s-1.335 3.212-3.165 3.212zm8.698-8.45h4.737c.064 2.565 1.937 4.29 4.693 4.29 3.079 0 4.823-1.854 4.823-5.325v-21.99h4.823v22.011c0 6.252-3.617 9.853-9.603 9.853-5.62 0-9.473-3.493-9.473-8.84zm25.384-.28h4.78c.409 2.953 3.294 4.828 7.45 4.828 3.875 0 6.717-2.005 6.717-4.764 0-2.371-1.809-3.794-5.921-4.764l-4.005-.97c-5.62-1.316-8.181-4.032-8.181-8.602 0-5.54 4.521-9.227 11.303-9.227 6.308 0 10.916 3.686 11.196 8.925h-4.694c-.452-2.867-2.95-4.657-6.567-4.657-3.81 0-6.35 1.833-6.35 4.635 0 2.22 1.635 3.493 5.683 4.441l3.423.841c6.373 1.488 9 4.075 9 8.753 0 5.95-4.607 9.68-11.97 9.68-6.89 0-11.52-3.558-11.864-9.12z"/></symbol>
<symbol id="i-nodejs" viewBox="0 0 512 145" xmlns="http://www.w3.org/2000/svg" preserveAspectRatio="xMinYMin meet"><g fill="#83CD29"><path d="M471.05 51.611c-1.244 0-2.454.257-3.525.863l-33.888 19.57c-2.193 1.264-3.526 3.65-3.526 6.189v39.069c0 2.537 1.333 4.92 3.526 6.187l8.85 5.109c4.3 2.119 5.885 2.086 7.842 2.086 6.366 0 10.001-3.863 10.001-10.576V81.542c0-.545-.472-.935-1.007-.935h-4.245c-.544 0-1.007.39-1.007.935v38.566c0 2.975-3.1 5.968-8.13 3.453l-9.21-5.396c-.326-.177-.576-.49-.576-.863v-39.07c0-.37.247-.747.576-.935L470.547 57.8a.998.998 0 011.007 0l33.817 19.498c.322.194.576.553.576.936v39.069c0 .373-.188.755-.504.935l-33.889 19.498c-.29.173-.69.173-1.007 0l-8.706-5.18a.905.905 0 00-.863 0c-2.403 1.362-2.855 1.52-5.109 2.302-.555.194-1.398.495.288 1.44l11.368 6.69a6.995 6.995 0 003.526.936 6.949 6.949 0 003.525-.935l33.889-19.499c2.193-1.275 3.525-3.65 3.525-6.187v-39.07c0-2.538-1.332-4.92-3.525-6.187l-33.889-19.57c-1.062-.607-2.28-.864-3.525-.864z"/><path d="M480.116 79.528c-9.65 0-15.397 4.107-15.397 10.937 0 7.408 5.704 9.444 14.966 10.36 11.08 1.085 11.943 2.712 11.943 4.893 0 3.783-3.016 5.396-10.144 5.396-8.957 0-10.925-2.236-11.584-6.691-.078-.478-.447-.864-.936-.864h-4.389c-.54 0-1.007.466-1.007 1.008 0 5.703 3.102 12.447 17.916 12.447 10.723 0 16.908-4.209 16.908-11.584 0-7.31-4.996-9.273-15.398-10.648-10.51-1.391-11.512-2.072-11.512-4.533 0-2.032.85-4.75 8.634-4.75 6.954 0 9.524 1.5 10.577 6.189.092.44.48.791.935.791h4.39c.27 0 .532-.166.719-.36.184-.207.314-.44.288-.719-.68-8.074-6.064-11.872-16.909-11.872z"/></g><path d="M271.821.383a2.181 2.181 0 00-1.08.287 2.18 2.18 0 00-1.079 1.871v55.042c0 .54-.251 1.024-.719 1.295a1.501 1.501 0 01-1.511 0l-8.994-5.18a4.31 4.31 0 00-4.317 0l-35.903 20.721c-1.342.775-2.158 2.264-2.158 3.814v41.443c0 1.548.817 2.966 2.158 3.741l35.903 20.722a4.3 4.3 0 004.317 0l35.903-20.722a4.308 4.308 0 002.159-3.741V16.356a4.386 4.386 0 00-2.23-3.814L272.9.598c-.335-.187-.707-.22-1.079-.215zM40.861 52.115c-.684.027-1.328.147-1.942.503L3.015 73.34a4.3 4.3 0 00-2.158 3.741L.929 132.7c0 .773.399 1.492 1.079 1.87a2.096 2.096 0 002.159 0l21.297-12.231c1.349-.802 2.23-2.196 2.23-3.742V92.623c0-1.55.815-2.972 2.159-3.742l9.065-5.252a4.251 4.251 0 012.159-.576c.74 0 1.5.185 2.158.576l9.066 5.252a4.296 4.296 0 012.159 3.742v25.973c0 1.546.89 2.95 2.23 3.742l21.297 12.232a2.096 2.096 0 002.159 0 2.164 2.164 0 001.08-1.871l.07-55.618a4.28 4.28 0 00-2.158-3.741L43.235 52.618c-.607-.356-1.253-.475-1.942-.503h-.432zm322.624.503c-.75 0-1.485.19-2.158.576l-35.903 20.722a4.306 4.306 0 00-2.159 3.741V119.1c0 1.559.878 2.971 2.23 3.742l35.616 20.29c1.315.75 2.921.807 4.245.07l21.585-12.015c.685-.38 1.148-1.09 1.151-1.87a2.126 2.126 0 00-1.079-1.871l-36.119-20.722c-.676-.386-1.151-1.167-1.151-1.943v-12.95c0-.775.48-1.485 1.151-1.871l11.224-6.476a2.155 2.155 0 012.159 0L375.5 89.96a2.152 2.152 0 011.08 1.87v10.217a2.15 2.15 0 001.079 1.87c.673.389 1.487.39 2.158 0L401.331 91.4a4.325 4.325 0 002.159-3.742v-10c0-1.545-.82-2.966-2.159-3.742l-35.687-20.722a4.279 4.279 0 00-2.159-.575zm-107.35 30.939c.188 0 .408.046.576.143l12.304 7.123c.334.193.576.55.576.935v14.246c0 .387-.24.743-.576.936l-12.304 7.123a1.088 1.088 0 01-1.079 0l-12.303-7.123c-.335-.194-.576-.549-.576-.936V91.758c0-.386.242-.74.576-.935l12.303-7.122a.948.948 0 01.504-.143v-.001z" fill="#404137"/><path d="M148.714 52.402c-.748 0-1.488.19-2.158.576l-35.903 20.65c-1.343.773-2.159 2.265-2.159 3.813v41.443c0 1.55.817 2.966 2.159 3.742l35.903 20.721a4.297 4.297 0 004.317 0l35.903-20.721a4.308 4.308 0 002.158-3.742V77.441c0-1.55-.816-3.04-2.158-3.813l-35.903-20.65a4.297 4.297 0 00-2.159-.576zm214.699 36.983c-.143 0-.302 0-.431.072l-6.907 4.029a.84.84 0 00-.432.72v7.914a.84.84 0 00.432.72l6.907 3.957c.259.15.535.15.791 0l6.907-3.958a.846.846 0 00.432-.719v-7.915a.846.846 0 00-.432-.719l-6.907-4.03c-.128-.075-.216-.07-.36-.07z" fill="#83CD29"/></symbol>
<symbol id="i-nuxtjs" xmlns="http://www.w3.org/2000/svg" viewBox="0 0 120 60"><g data-name="Calque 1-2"><path d="M48.787 26.174a.804.804 0 01.223.583v11.215a.901.901 0 01-.25.647.849.849 0 01-.638.262 1.267 1.267 0 01-.397-.063.68.68 0 01-.305-.194l-7.265-9.46v8.905a.788.788 0 01-.764.812h-.048a.754.754 0 01-.573-.23.804.804 0 01-.22-.582V26.831a.854.854 0 01.262-.636.828.828 0 01.618-.25 1.125 1.125 0 01.425.082.736.736 0 01.313.231l7.234 9.48v-8.98a.788.788 0 01.764-.813h.048a.762.762 0 01.573.229zm14.925 0a.904.904 0 01.231.639v7.094a5.31 5.31 0 01-.646 2.628 4.698 4.698 0 01-1.784 1.82 5.035 5.035 0 01-2.56.668 5.127 5.127 0 01-2.588-.654 4.683 4.683 0 01-1.792-1.821 5.31 5.31 0 01-.647-2.628v-7.094a.849.849 0 01.263-.639.922.922 0 01.665-.263.864.864 0 01.62.263.841.841 0 01.263.628v7.095a3.382 3.382 0 00.444 1.729 3.19 3.19 0 002.772 1.616 3.3 3.3 0 001.645-.426 3.21 3.21 0 001.219-1.19 3.337 3.337 0 00.452-1.73v-7.094a.936.936 0 01.22-.638.788.788 0 01.613-.263.801.801 0 01.61.26zm14.223 11.378a.867.867 0 01.166.525.804.804 0 01-.263.628.875.875 0 01-.602.24.828.828 0 01-.72-.369l-3.591-4.795-3.511 4.787a.849.849 0 01-.72.387.765.765 0 01-.565-.232.717.717 0 01-.231-.525.993.993 0 01.223-.61l3.79-5.158-3.808-5.118a.86.86 0 01-.186-.526.84.84 0 01.262-.628.865.865 0 01.62-.263.898.898 0 01.397.095.815.815 0 01.323.276l3.55 4.769 3.516-4.722a.893.893 0 01.702-.407.788.788 0 01.583.262.788.788 0 01.263.565.93.93 0 01-.184.526l-3.858 5.135zm13.336-11.378a.807.807 0 01.262.62.788.788 0 01-.262.61.935.935 0 01-.639.22h-3.29v10.372a.844.844 0 01-.263.628 1.014 1.014 0 01-1.35 0 .851.851 0 01-.263-.628V27.624h-3.282a.904.904 0 01-.636-.228.807.807 0 01-.25-.62.788.788 0 01.25-.602.904.904 0 01.636-.228h8.448a.915.915 0 01.639.228z" fill="#2c4a5d"/><path d="M95.317 38.55a3.889 3.889 0 01-1.442-1.424.935.935 0 01-.169-.5.788.788 0 01.279-.6.854.854 0 01.573-.264 1.185 1.185 0 01.833.463 2.23 2.23 0 001.939 1.072 2.364 2.364 0 001.718-.683 2.257 2.257 0 00.705-1.682v-8.101a.83.83 0 01.275-.628.914.914 0 01.647-.263.878.878 0 01.657.25.865.865 0 01.25.636v8.12a4.002 4.002 0 01-.555 2.07 4.08 4.08 0 01-1.524 1.495 4.294 4.294 0 01-2.173.557 4.008 4.008 0 01-2.013-.518zm12.707.137a6.09 6.09 0 01-1.978-1.227.988.988 0 01-.386-.76.838.838 0 01.262-.599.822.822 0 01.61-.263.757.757 0 01.525.203 5.14 5.14 0 001.524 1.006 4.614 4.614 0 001.785.326 3.466 3.466 0 001.968-.539 1.577 1.577 0 00.804-1.348 1.729 1.729 0 00-.804-1.487 7.145 7.145 0 00-2.391-.877 6.417 6.417 0 01-2.933-1.278 3.07 3.07 0 01-1.024-2.456 3.27 3.27 0 01.578-1.926 3.679 3.679 0 011.576-1.267 5.657 5.657 0 012.292-.444 6.264 6.264 0 012.162.37 4.548 4.548 0 011.645.98 1.05 1.05 0 01.425.789.825.825 0 01-.25.591.788.788 0 01-.6.263.607.607 0 01-.424-.15 3.813 3.813 0 00-1.332-.812 4.421 4.421 0 00-1.614-.32 3.387 3.387 0 00-1.968.51 1.634 1.634 0 000 2.724 6.886 6.886 0 002.173.815 11.46 11.46 0 012.365.738 3.332 3.332 0 011.414 1.183 3.555 3.555 0 01.497 1.978 3.17 3.17 0 01-.6 1.903 3.962 3.962 0 01-1.637 1.295 5.518 5.518 0 01-2.272.463 6.85 6.85 0 01-2.392-.384z" fill="#00c391"/><path d="M12.738 38.729a.937.937 0 01-.05-.103 1.314 1.314 0 01-.09-.74H6.638l8.86-15.593 2.909 5.113.843-1.492-2.535-4.467a1.55 1.55 0 00-1.238-.817 1.378 1.378 0 00-1.2.827L5.298 37.24a1.587 1.587 0 00-.078 1.49 1.381 1.381 0 001.313.633h7.518a1.378 1.378 0 01-1.314-.633z" fill="#00c492"/><path d="M30.023 37.239l-7.376-12.994a1.554 1.554 0 00-1.243-.827 1.374 1.374 0 00-1.2.825l-.955 1.67.85 1.493 1.313-2.325 7.297 12.804h-2.775a1.243 1.243 0 01-.058.631.8.8 0 01-.057.129l-.024.047a1.588 1.588 0 01-1.338.67h4.341a1.586 1.586 0 001.338-.67 1.378 1.378 0 00-.113-1.453z" fill="#008776"/><path d="M25.795 38.692l.024-.047a.8.8 0 00.057-.129 1.243 1.243 0 00.058-.63 1.92 1.92 0 00-.242-.647l-5.588-9.833-.854-1.492-.849 1.492-5.586 9.833a1.99 1.99 0 00-.216.647 1.314 1.314 0 00.082.74.928.928 0 00.05.103 1.381 1.381 0 001.313.633H24.45a1.592 1.592 0 001.345-.67zM19.249 28.9l5.109 8.986H14.144z" fill="#2d4a5d"/></g></symbol>
<symbol id="i-php" viewBox="0 0 256 134" xmlns="http://www.w3.org/2000/svg" preserveAspectRatio="xMinYMin meet"><g fill-rule="evenodd"><ellipse fill="#8993BE" cx="128" cy="66.63" rx="128" ry="66.63"/><path d="M35.945 106.082l14.028-71.014H82.41c14.027.877 21.041 7.89 21.041 20.165 0 21.041-16.657 33.315-31.562 32.438H56.11l-3.507 18.411H35.945zm23.671-31.561L64 48.219h11.397c6.137 0 10.52 2.63 10.52 7.89-.876 14.905-7.89 17.535-15.78 18.412h-10.52zm40.576 13.15l14.027-71.013h16.658l-3.507 18.41h15.78c14.028.877 19.288 7.89 17.535 16.658l-6.137 35.945h-17.534l6.137-32.438c.876-4.384.876-7.014-5.26-7.014H124.74l-7.89 39.452h-16.658zm53.233 18.411l14.027-71.014h32.438c14.028.877 21.042 7.89 21.042 20.165 0 21.041-16.658 33.315-31.562 32.438h-15.781l-3.507 18.411h-16.657zm23.67-31.561l4.384-26.302h11.398c6.137 0 10.52 2.63 10.52 7.89-.876 14.905-7.89 17.535-15.78 18.412h-10.521z" fill="#232531"/></g></symbol>
<symbol id="i-reactjs" viewBox="175.7 78 490.6 436.9" xmlns="http://www.w3.org/2000/svg"><g fill="#61dafb"><path d="M666.3 296.5c0-32.5-40.7-63.3-103.1-82.4 14.4-63.6 8-114.2-20.2-130.4-6.5-3.8-14.1-5.6-22.4-5.6v22.3c4.6 0 8.3.9 11.4 2.6 13.6 7.8 19.5 37.5 14.9 75.7-1.1 9.4-2.9 19.3-5.1 29.4-19.6-4.8-41-8.5-63.5-10.9-13.5-18.5-27.5-35.3-41.6-50 32.6-30.3 63.2-46.9 84-46.9V78c-27.5 0-63.5 19.6-99.9 53.6-36.4-33.8-72.4-53.2-99.9-53.2v22.3c20.7 0 51.4 16.5 84 46.6-14 14.7-28 31.4-41.3 49.9-22.6 2.4-44 6.1-63.6 11-2.3-10-4-19.7-5.2-29-4.7-38.2 1.1-67.9 14.6-75.8 3-1.8 6.9-2.6 11.5-2.6V78.5c-8.4 0-16 1.8-22.6 5.6-28.1 16.2-34.4 66.7-19.9 130.1-62.2 19.2-102.7 49.9-102.7 82.3 0 32.5 40.7 63.3 103.1 82.4-14.4 63.6-8 114.2 20.2 130.4 6.5 3.8 14.1 5.6 22.5 5.6 27.5 0 63.5-19.6 99.9-53.6 36.4 33.8 72.4 53.2 99.9 53.2 8.4 0 16-1.8 22.6-5.6 28.1-16.2 34.4-66.7 19.9-130.1 62-19.1 102.5-49.9 102.5-82.3zm-130.2-66.7c-3.7 12.9-8.3 26.2-13.5 39.5-4.1-8-8.4-16-13.1-24-4.6-8-9.5-15.8-14.4-23.4 14.2 2.1 27.9 4.7 41 7.9zm-45.8 106.5c-7.8 13.5-15.8 26.3-24.1 38.2-14.9 1.3-30 2-45.2 2-15.1 0-30.2-.7-45-1.9-8.3-11.9-16.4-24.6-24.2-38-7.6-13.1-14.5-26.4-20.8-39.8 6.2-13.4 13.2-26.8 20.7-39.9 7.8-13.5 15.8-26.3 24.1-38.2 14.9-1.3 30-2 45.2-2 15.1 0 30.2.7 45 1.9 8.3 11.9 16.4 24.6 24.2 38 7.6 13.1 14.5 26.4 20.8 39.8-6.3 13.4-13.2 26.8-20.7 39.9zm32.3-13c5.4 13.4 10 26.8 13.8 39.8-13.1 3.2-26.9 5.9-41.2 8 4.9-7.7 9.8-15.6 14.4-23.7 4.6-8 8.9-16.1 13-24.1zM421.2 430c-9.3-9.6-18.6-20.3-27.8-32 9 .4 18.2.7 27.5.7 9.4 0 18.7-.2 27.8-.7-9 11.7-18.3 22.4-27.5 32zm-74.4-58.9c-14.2-2.1-27.9-4.7-41-7.9 3.7-12.9 8.3-26.2 13.5-39.5 4.1 8 8.4 16 13.1 24s9.5 15.8 14.4 23.4zM420.7 163c9.3 9.6 18.6 20.3 27.8 32-9-.4-18.2-.7-27.5-.7-9.4 0-18.7.2-27.8.7 9-11.7 18.3-22.4 27.5-32zm-74 58.9c-4.9 7.7-9.8 15.6-14.4 23.7-4.6 8-8.9 16-13 24-5.4-13.4-10-26.8-13.8-39.8 13.1-3.1 26.9-5.8 41.2-7.9zm-90.5 125.2c-35.4-15.1-58.3-34.9-58.3-50.6s22.9-35.6 58.3-50.6c8.6-3.7 18-7 27.7-10.1 5.7 19.6 13.2 40 22.5 60.9-9.2 20.8-16.6 41.1-22.2 60.6-9.9-3.1-19.3-6.5-28-10.2zM310 490c-13.6-7.8-19.5-37.5-14.9-75.7 1.1-9.4 2.9-19.3 5.1-29.4 19.6 4.8 41 8.5 63.5 10.9 13.5 18.5 27.5 35.3 41.6 50-32.6 30.3-63.2 46.9-84 46.9-4.5-.1-8.3-1-11.3-2.7zm237.2-76.2c4.7 38.2-1.1 67.9-14.6 75.8-3 1.8-6.9 2.6-11.5 2.6-20.7 0-51.4-16.5-84-46.6 14-14.7 28-31.4 41.3-49.9 22.6-2.4 44-6.1 63.6-11 2.3 10.1 4.1 19.8 5.2 29.1zm38.5-66.7c-8.6 3.7-18 7-27.7 10.1-5.7-19.6-13.2-40-22.5-60.9 9.2-20.8 16.6-41.1 22.2-60.6 9.9 3.1 19.3 6.5 28.1 10.2 35.4 15.1 58.3 34.9 58.3 50.6-.1 15.7-23 35.6-58.4 50.6z"/><circle cx="420.9" cy="296.5" r="45.7"/></g></symbol>
<symbol id="i-vuejs" viewBox="0 0 2500 2165.1" xmlns="http://www.w3.org/2000/svg"><path d="M1538.7 0L1250 500 961.3 0H0l1250 2165.1L2500 0z" fill="#4dba87"/><path d="M1538.7 0L1250 500 961.3 0H500l750 1299L2000 0z" fill="#435466"/></symbol>
</svg>