<?xml version="1.0" encoding="UTF-8"?>
<svg version="1.1" xmlns="http://www.w3.org/2000/svg" xmlns:xlink="http://www.w3.org/1999/xlink">
<defs>
<clipPath id="clip0"><path fill="#fff" d="M0 0h500v543H0z"/></clipPath>
</defs>
<symbol id="i-hero" viewBox="0 0 500 543" fill="none" xmlns="http://www.w3.org/2000/svg"><g clip-path="url(#clip0)"><path opacity=".15" d="M193.012 543.335c19.953 0 36.129-1.703 36.129-3.804 0-2.1-16.176-3.803-36.129-3.803-19.955 0-36.131 1.703-36.131 3.803 0 2.101 16.176 3.804 36.131 3.804zM391.728 499.598H0v7.606h391.728v-7.606z" fill="#137ED9"/><path opacity=".05" d="M499.053 117.683H330.839v112.631h168.214V117.683z" fill="#137ED9"/><path opacity=".2" d="M499.062 230.314V222.328l-.113-22.706c0-19.567-.077-47.701-.124-81.987l.237.238-168.205.057.305-.304v112.631l-.276-.276 121.188.133 34.628.076H499.11h-12.284l-34.562.077-121.368.133h-.276v-.276-112.935h.314l168.204.057h.238v.237c-.057 34.353-.095 62.534-.123 82.139l-.143 22.819v5.895a272.594 272.594 0 01-.048 1.978z" fill="#137ED9"/><path opacity=".2" d="M330.839 127.733c0-.171 37.632-.304 84.031-.304 46.398 0 84.041.133 84.041.304 0 .171-37.623.304-84.041.304s-84.031-.142-84.031-.304zM336.135 124.016a1.351 1.351 0 10-.002-2.702 1.351 1.351 0 00.002 2.702zM340.755 124.016a1.35 1.35 0 100-2.7 1.35 1.35 0 000 2.7zM345.309 124.016a1.351 1.351 0 100-2.702 1.351 1.351 0 000 2.702z" fill="#137ED9"/><path opacity=".3" d="M390.178 139.475h-44.869v44.868h44.869v-44.868z" fill="#137ED9"/><path opacity=".2" d="M475.996 152.159c0 .171-17.504.304-39.087.304-21.583 0-39.087-.133-39.087-.304 0-.171 17.494-.304 39.087-.304 21.593 0 39.087.142 39.087.304zM475.996 160.498c0 .171-17.504.304-39.087.304-21.583 0-39.087-.133-39.087-.304 0-.172 17.494-.305 39.087-.305 21.593 0 39.087.143 39.087.305zM475.996 168.836c0 .171-17.504.304-39.087.304-21.583 0-39.087-.133-39.087-.304 0-.171 17.494-.305 39.087-.305 21.593 0 39.087.143 39.087.305zM444.021 177.174c-.601.091-1.208.129-1.816.114l-4.954.095c-4.183.058-9.955.086-16.334.086-6.38 0-12.151 0-16.335-.086l-4.954-.095a10.397 10.397 0 01-1.815-.114c.601-.09 1.208-.128 1.815-.114l4.954-.095c4.184-.057 9.955-.085 16.335-.085 6.379 0 12.151 0 16.334.085l4.954.095c.608-.014 1.215.024 1.816.114zM369.203 199.48h-21.088v21.089h21.088V199.48zM407.444 199.48h-21.088v21.089h21.088V199.48zM445.685 199.48h-21.088v21.089h21.088V199.48zM483.936 199.48h-21.089v21.089h21.089V199.48z" fill="#137ED9"/><path d="M262.487 109.816a9.69 9.69 0 01-1.701.114l-4.688.095c-3.984.057-9.508.095-15.783.105h-.314v-.314-3.128c0-6.989 0-13.311.095-17.904l.114-5.42a12.12 12.12 0 01.124-1.986c.095.658.136 1.322.123 1.987l.095 5.429c.058 4.583.096 10.906.096 17.903v3.128l-.314-.313c6.256 0 11.809 0 15.783.104l4.687.095a9.672 9.672 0 011.683.105zM240.448 76.1c.173 0 .314-1.813.314-4.05 0-2.236-.141-4.05-.314-4.05-.174 0-.314 1.814-.314 4.05 0 2.237.14 4.05.314 4.05zM259.842 77.56c1.56-1.559 2.725-2.923 2.602-3.045-.122-.123-1.486 1.042-3.045 2.602-1.56 1.56-2.724 2.923-2.602 3.045.122.123 1.486-1.042 3.045-2.602zM275.294 88.556c.077.162-1.454 1.075-3.327 2.216-1.874 1.14-3.395 2.072-3.499 1.901-.105-.171 1.274-1.312 3.175-2.462 1.902-1.15 3.575-1.807 3.651-1.655zM277.301 109.711c3.051 0 5.524-.14 5.524-.313 0-.174-2.473-.314-5.524-.314s-5.525.14-5.525.314c0 .173 2.474.313 5.525.313zM200.952 108.979c2.883 0 5.22-.14 5.22-.313 0-.174-2.337-.314-5.22-.314-2.883 0-5.22.14-5.22.314 0 .173 2.337.313 5.22.313zM207.648 127.764c2.286-1.841 4.051-3.444 3.942-3.578-.108-.135-2.05 1.248-4.336 3.089-2.285 1.841-4.051 3.444-3.942 3.578.109.135 2.05-1.248 4.336-3.089zM224.997 136.181c.143.105-1.169 2.121-2.681 4.659-1.512 2.539-2.691 4.631-2.852 4.555-.161-.077.77-2.321 2.31-4.878s3.062-4.44 3.223-4.336zM240.448 151.651c.173 0 .314-2.474.314-5.524 0-3.051-.141-5.525-.314-5.525-.174 0-.314 2.474-.314 5.525 0 3.05.14 5.524.314 5.524zM264.275 144.292c-.085.143-2.253-1.103-4.554-3.119-2.301-2.015-3.804-3.984-3.718-4.088.085-.105 1.844 1.645 4.127 3.622 2.281 1.978 4.249 3.432 4.145 3.585zM275.471 132.252c.122-.123-1.319-1.763-3.22-3.664-1.902-1.901-3.542-3.343-3.664-3.22-.123.122 1.319 1.763 3.22 3.663 1.901 1.902 3.542 3.344 3.664 3.221zM211.1 93.796c.123-.123-1.127-1.57-2.79-3.234-1.664-1.664-3.112-2.913-3.234-2.79-.122.122 1.127 1.57 2.79 3.233 1.664 1.664 3.111 2.913 3.234 2.79zM224.892 79.258c.122-.123-1.103-1.541-2.737-3.167-1.634-1.627-3.057-2.846-3.18-2.723-.122.123 1.103 1.541 2.737 3.167 1.634 1.627 3.057 2.846 3.18 2.723z" fill="#137ED9"/><path opacity=".05" d="M178.769 159.223H34.447v58.626H178.77v-58.626z" fill="#137ED9"/><path opacity=".3" d="M178.769 217.84V202.085l-.086-42.872.162.162-144.312.067.228-.229v58.627l-.219-.219 103.476.104 30.016.058H176.125h-7.986l-29.969.057-103.637.104h-.219v-.219-58.854h.238l144.312.067h.161v.162l-.085 42.966v14.643c-.162.789-.171 1.131-.171 1.131z" fill="#137ED9"/><path opacity=".3" d="M34.59 167.124c0-.123 32.26-.228 72.042-.228 39.781 0 72.051.105 72.051.228 0 .124-32.251.229-72.051.229-39.8 0-72.042-.058-72.042-.229zM39.591 164.634a1.047 1.047 0 10-.001-2.093 1.047 1.047 0 00.001 2.093zM43.176 164.634a1.047 1.047 0 10-.002-2.093 1.047 1.047 0 00.002 2.093zM46.712 164.634a1.047 1.047 0 10-.001-2.093 1.047 1.047 0 00.002 2.093z" fill="#137ED9"/><path opacity=".2" d="M81.569 176.651H46.712v34.856H81.57v-34.856z" fill="#137ED9"/><path opacity=".3" d="M168.833 185.998c0 .123-17.942.228-40.057.228-22.116 0-40.067-.105-40.067-.228 0-.124 17.932-.228 40.067-.228s40.057.095 40.057.228zM168.833 193.1c0 .123-17.942.228-40.057.228-22.116 0-40.067-.105-40.067-.228 0-.124 17.932-.228 40.067-.228s40.057.095 40.057.228zM140.243 200.193c-.175.02-.35.02-.523 0h-1.503l-5.524.076-18.236.067-18.237-.067-5.524-.076h-1.502c-.174.02-.35.02-.523 0 .174-.02.349-.02.523 0h1.502l5.524-.076 18.237-.066 18.236.066 5.524.076h1.503c.173-.02.348-.02.523 0zM81.15 117.712h-7.768v25.11h7.768v-25.11zM95.46 107.376h-7.768v35.446h7.767v-35.446zM110.682 102.546h-7.768v40.267h7.768v-40.267zM125.914 97.46h-7.768v45.362h7.768V97.459z" fill="#137ED9"/><path opacity=".3" fill-rule="evenodd" clip-rule="evenodd" d="M458.987 242.665a17.872 17.872 0 013.879 2.729l4.145-1.474 3.898 6.152-3.109 3.118c.48 1.516.755 3.089.818 4.678l3.974 1.902-1.597 7.102h-4.402a17.838 17.838 0 01-2.739 3.88l1.474 4.145-6.152 3.898-3.109-3.109a17.864 17.864 0 01-4.678.818l-1.901 3.974-7.102-1.597v-4.403a17.746 17.746 0 01-3.879-2.738l-4.146 1.474-3.899-6.152 3.11-3.118a17.878 17.878 0 01-.818-4.678l-3.974-1.902 1.597-7.102h4.402a17.78 17.78 0 012.738-3.879l-1.511-4.136 6.151-3.899 3.119 3.11a17.837 17.837 0 014.678-.818l1.902-3.975 7.102 1.598v4.402h.029zm-6.266 8.357a7.821 7.821 0 00-8.105 3.127 7.82 7.82 0 00-.21 8.684 7.817 7.817 0 0014.229-2.483 7.818 7.818 0 00-5.914-9.328zM382.505 247.115c.821.426 1.582.96 2.263 1.587l2.415-.855 2.272 3.584-1.807 1.816c.279.882.439 1.796.476 2.719l2.31 1.103-.95 4.136h-2.558c-.426.822-.96 1.583-1.588 2.263l.856 2.415-3.585 2.272-1.816-1.806c-.881.279-1.796.439-2.719.476l-1.103 2.31-4.136-.951v-2.557a10.422 10.422 0 01-2.263-1.588l-2.415.856-2.272-3.585 1.806-1.816a10.476 10.476 0 01-.475-2.719l-2.292-1.056.952-4.135h2.557c.426-.822.96-1.583 1.588-2.264l-.856-2.414 3.584-2.273 1.816 1.806a10.434 10.434 0 012.72-.475l1.102-2.31 4.137.95v2.558l-.019-.047zm-3.651 4.868a4.547 4.547 0 00-5.537 4.326 4.55 4.55 0 002.704 4.265 4.544 4.544 0 006.275-3.162 4.548 4.548 0 00-3.433-5.429h-.009z" fill="#137ED9"/><path d="M107.763 289.263h177.856a29.229 29.229 0 0129.227 29.209v99.643H78.506v-99.643a29.238 29.238 0 018.578-20.665 29.232 29.232 0 0120.679-8.544z" fill="#fff"/><path d="M325.181 349.933h25.253a12.99 12.99 0 0112.988 12.988v101.497h-50.306V362.009a12.068 12.068 0 0112.065-12.076zM43.908 349.933h23.475a12.293 12.293 0 0112.303 12.275v102.21H32.869V360.963a11.028 11.028 0 0111.03-11.03h.009z" fill="#137ED9"/><path d="M83.08 403.672h227.297a14.88 14.88 0 0114.881 14.88v5.933H68.704v-6.437a14.375 14.375 0 0114.377-14.376z" fill="#137ED9"/><path d="M354.57 349.933h-15.355a13.966 13.966 0 00-13.967 13.968v58.825H68.704v-57.665a15.214 15.214 0 00-15.212-15.213H38.184a13.969 13.969 0 00-13.967 13.967v124.516a2.014 2.014 0 002.015 2.015h42.472v-26.003h256.544v26.003h42.471a2.016 2.016 0 002.017-2.015v-123.27a15.21 15.21 0 00-4.47-10.685 15.21 15.21 0 00-10.696-4.443z" fill="#fff"/><path opacity=".3" d="M354.57 349.933h-15.355a13.966 13.966 0 00-13.967 13.968v58.825H68.704v-57.665a15.214 15.214 0 00-15.212-15.213H38.184a13.969 13.969 0 00-13.967 13.967v124.516a2.014 2.014 0 002.015 2.015h42.472v-26.003h256.544v26.003h42.471a2.016 2.016 0 002.017-2.015v-123.27a15.21 15.21 0 00-4.47-10.685 15.21 15.21 0 00-10.696-4.443z" fill="#137ED9"/><path opacity=".3" d="M107.763 289.263h177.856a29.229 29.229 0 0129.227 29.209v99.643H78.506v-99.643a29.238 29.238 0 018.578-20.665 29.232 29.232 0 0120.679-8.544z" fill="#137ED9"/><path d="M362.804 492.856v-2.31h-32.355v2.31h-4.041v6.942h40.446v-6.942h-4.05zM62.353 492.856v-2.31H29.988v2.31h-4.04v6.942h40.446v-6.942h-4.04zM278.63 342.023a354.808 354.808 0 00-23.389-40.456c-2.663-3.975-5.534-8.016-9.651-10.459-3.689-2.168-8.053-2.853-12.36-3.262-10.459-1.045-21.041-.883-31.576-.722-16.268.238-32.64.495-48.566 3.803a16.594 16.594 0 00-5.049 1.674 17.103 17.103 0 00-4.697 4.754A215.394 215.394 0 00121.474 333a159.405 159.405 0 00-7.977 19.016c-2.083 6.208-5.439 12.036-5.781 18.778-.314 6.437 2.557 13.482 8.443 16.106 7.406 3.3 15.888-1.378 23.988-.951v-2.367l14.139-1.179-1.17 21.222 12.361-16.335a7.6 7.6 0 016.883-4.05l50.012-4.46c5.153-.456 10.335-.95 15.479-.38 7.463.78 14.528 3.623 21.782 5.525 7.255 1.901 15.213 2.852 22.078-.143a7.856 7.856 0 002.947-1.902 8.394 8.394 0 001.598-3.613c3.023-12.313-2.054-24.949-7.626-36.244zm-35.902 26.232v-22.391l9.423 16.496-9.423 5.895z" fill="#137ED9"/><path d="M154.352 343.506l-10.611 18.854 10.611 7.074v-25.928z" fill="#fff"/><path d="M157.889 369.434s2.254-14.614 25.424-11.999a1.904 1.904 0 011.683 1.901 1.901 1.901 0 01-1.845 1.902c-3.917 0-12.616.485-11.704 4.146h16.05a1.623 1.623 0 011.626 1.625v3.747a2.853 2.853 0 01-2.853 2.852.658.658 0 00-.656.656v1.768a2.026 2.026 0 01-2.215 2.026c-4.288-.399-13.387-.694-14.262 3.803h-8.253s-1.226-12.997-2.995-12.427zM237.423 377.088l-1.179-7.074s-3.299-8.804-22.657-6.209a2.407 2.407 0 00-2.083 2.377v1.474h-1.787a1.766 1.766 0 00-1.768 1.768 1.762 1.762 0 00.518 1.251c.164.165.359.294.573.384.214.088.445.134.677.134h10.012v2.358h-9.508a2.312 2.312 0 10.095 4.621l27.107-1.084z" fill="#F5B58F"/><path d="M141.973 397.388l-6.466-61.887a4.958 4.958 0 011.046-3.992 4.949 4.949 0 013.708-1.809l97.723-2.262a4.941 4.941 0 015.001 5.704l1.351 58.741s-37.804 2.766-54.272 3.013c0 .01-30.929 7.16-48.091 2.492z" fill="#fff"/><path opacity=".2" d="M141.973 397.388l-6.466-61.887a4.958 4.958 0 011.046-3.992 4.949 4.949 0 013.708-1.809l97.723-2.262a4.941 4.941 0 015.001 5.704l1.351 58.741s-37.804 2.766-54.272 3.013c0 .01-30.929 7.16-48.091 2.492z" fill="#137ED9"/><path opacity=".2" d="M190.387 354.079c3.818 0 6.912-1.856 6.912-4.146 0-2.289-3.094-4.145-6.912-4.145-3.817 0-6.912 1.856-6.912 4.145 0 2.29 3.095 4.146 6.912 4.146z" fill="#137ED9"/><path d="M141.393 385.931s-32.992 2.357-38.888 9.422c-5.895 7.064 1.18 17.675 20.033 11.78 18.855-5.895 23.571-9.422 23.571-9.422l-4.716-11.78z" fill="#000D44"/><path d="M186.166 273.984l-1.17 16.496a16.966 16.966 0 0012.959 9.423l1.607 3.556a2.573 2.573 0 002.241 1.512 2.573 2.573 0 002.352-1.332l2.053-3.746s9.632-4.469 10.706-12.836l-1.283-16.619-29.465 3.546z" fill="#F5B58F"/><path d="M282.719 383.572h-1.112a25.43 25.43 0 00-16.278-5.894H236.14l-81.769 4.753v-.075l-14.138 1.178-1.179 23.571h14.138s107.231 12.959 113.145 12.959c5.914 0 29.417-7.036 16.382-36.492z" fill="#1B255E"/><path d="M177.39 537.734l23.037-4.221c-4.002-20.233-5.885-40.818-7.758-61.355l-4.753-51.628c-.743-8.158-1.741-16.924-7.179-23.047a19.57 19.57 0 00-13.577-6.475c-5.496-.248-10.726 1.902-15.375 4.601-4.649 2.701-6.246 5.753-7.302 11.039-.894 4.488.105 9.109 1.132 13.568 9.118 39.544 20.318 78.564 31.595 117.547l.18-.029z" fill="#1B255E"/><path d="M221.516 251.602s7.179 6.2-4.753 8.253l-1.18 10.601-31.956-.589 1.056-7.112s-11.515 6.523-7.978-8.795l1.208-10.601 10.601-10.601 17.676 3.537 15.317 8.252.009 7.055z" fill="#F5B58F"/><path d="M183.808 258.648a8.685 8.685 0 00.684-3.071 2.95 2.95 0 00-1.473-2.624 3.567 3.567 0 00-1.645-.267c-1.6.047-3.165.478-4.564 1.255-.703.39-3.413-5.476-3.622-6.085a14.858 14.858 0 01-.818-7.435c.951-4.364 5.238-8.291 9.156-10.031.371-3.309-.647-6.788.485-9.926a7.607 7.607 0 0110.763-4.117c1.701.951 3.024 2.463 4.82 3.166a8.356 8.356 0 005.705-.152 56.796 56.796 0 005.286-2.425 17.112 17.112 0 016.656-1.739 9.38 9.38 0 016.409 2.11c3.023 2.644 3.46 7.122 3.403 11.134-.057 4.012-.304 8.329 1.902 11.694a8.935 8.935 0 011.359 2.349 6.018 6.018 0 01-.684 3.803c-1.255 2.967-2.852 6.228-5.895 7.264a10.79 10.79 0 01-3.547.409 4.495 4.495 0 01-3.27-.951c-.761-.77-.885-1.948-1.388-2.909a3.987 3.987 0 00-3.965-2.025c.523 2.11-1.797 4.069-3.975 4.022-2.177-.048-4.078-1.407-5.79-2.767-4.278-3.394-8.31-7.103-12.36-10.791.437 5.21.874 10.515-.295 15.602-.523 1.968-1.464 4.069-3.337 4.507zM184.996 262.204s1.179 12.959 8.253 4.754c0 0 9.422-2.358 14.138 1.179 4.716 3.537 9.423-8.253 9.423-8.253s1.179 22.391-7.074 24.72c-8.253 2.33-19.292 1.436-23.77-7.53-4.478-8.966-.97-14.87-.97-14.87z" fill="#000D44"/><g opacity=".5" fill="#137ED9"><path opacity=".5" d="M233.201 277.416a13.547 13.547 0 01-1.179 5.458c-.161 0 0-1.274.305-2.786.304-1.512.723-2.719.874-2.672zM237.214 267.024a13.55 13.55 0 01-2.282 5.087c-.152-.057.238-1.246.875-2.662.637-1.417 1.264-2.501 1.407-2.425zM243.356 257.735a7.017 7.017 0 01-1.426 2.415 7.611 7.611 0 01-1.902 2.073c-.152-.105.495-1.17 1.417-2.415.922-1.246 1.788-2.187 1.911-2.073zM249.142 251.728c1.061-1.114 1.825-2.108 1.708-2.22-.118-.112-1.074.7-2.135 1.814-1.062 1.114-1.826 2.108-1.708 2.22.118.113 1.073-.699 2.135-1.814zM256.948 243.713c1.08-1.096 1.861-2.077 1.746-2.191-.116-.114-1.086.681-2.166 1.777-1.079 1.096-1.861 2.077-1.745 2.192.116.114 1.085-.682 2.165-1.778zM264.5 235.498c.975-1.19 1.665-2.237 1.539-2.341-.126-.103-1.019.777-1.995 1.967-.976 1.189-1.665 2.237-1.539 2.34.125.104 1.019-.777 1.995-1.966zM271.728 223.564a5.987 5.987 0 01-.951 2.652c-.713 1.379-1.483 2.387-1.616 2.301a8.16 8.16 0 011.102-2.567 8.29 8.29 0 011.465-2.386zM274.437 212.782a9.838 9.838 0 01-.95 5.495c.081-1.865.401-3.711.95-5.495zM273.61 201.705a9.854 9.854 0 01.856 5.505 21.886 21.886 0 01-.856-5.505zM269.236 191.502c.134-.085.952.885 1.683 2.254.531.792.859 1.703.952 2.653a8.71 8.71 0 01-1.465-2.377 8.84 8.84 0 01-1.17-2.53zM261.45 183.582a5.71 5.71 0 012.405 1.465c1.198.998 1.977 2.006 1.902 2.11-.076.105-1.065-.693-2.235-1.663-1.169-.97-2.158-1.769-2.072-1.912zM251.314 179.057c1.9.061 3.738.69 5.277 1.806-1.823-.393-3.595-1-5.277-1.806zM240.238 178.553a9.177 9.177 0 015.561-.295 9.047 9.047 0 01-2.775.295 9.228 9.228 0 01-2.786 0zM229.95 182.651c-.095-.124.865-.951 2.244-1.712a5.52 5.52 0 012.662-.95 9.486 9.486 0 01-2.387 1.435 9.312 9.312 0 01-2.519 1.227zM222.286 190.675a5.65 5.65 0 011.37-2.462c.951-1.236 1.901-2.044 2.054-1.902.151.143-.657 1.084-1.588 2.292-.932 1.207-1.693 2.158-1.836 2.072zM218.531 201.096a5.5 5.5 0 01.218-2.852 5.554 5.554 0 011.094-2.605 9.378 9.378 0 01-.523 2.738 9.583 9.583 0 01-.789 2.719zM219.862 212.068a5.589 5.589 0 01-1.094-2.605 5.526 5.526 0 01-.228-2.853 9.5 9.5 0 01.789 2.673c.319.896.499 1.835.533 2.785zM225.51 221.624c-.114.104-1.046-.77-1.95-2.035a5.84 5.84 0 01-1.302-2.5c.143-.086.875.95 1.769 2.158a8.463 8.463 0 011.483 2.377zM233.724 229.097a6.171 6.171 0 01-2.405-1.464c-1.207-.951-2.044-1.902-1.902-2.044.143-.143 1.113.627 2.301 1.588 1.189.96 2.101 1.834 2.006 1.92zM243.394 234.688c-.067.142-1.236-.305-2.615-1.008-1.378-.704-2.433-1.388-2.358-1.521a13.532 13.532 0 014.973 2.529zM254.005 238.063a10.561 10.561 0 01-5.4-1.36c1.858.195 3.678.662 5.4 1.389v-.029zM265.11 238.605a10.006 10.006 0 01-5.571.114 8.401 8.401 0 012.785-.238 8.493 8.493 0 012.786.124zM275.844 235.753a9.771 9.771 0 01-5.247 1.901 22.262 22.262 0 015.247-1.901zM285.143 229.677c.105.114-.741 1.065-1.977 2.007a5.96 5.96 0 01-2.453 1.387c-.086-.133.884-.951 2.091-1.844 1.208-.894 2.234-1.673 2.339-1.55zM292.436 221.234a6.062 6.062 0 01-1.369 2.463c-.951 1.245-1.902 2.11-1.978 2.006a8.236 8.236 0 011.445-2.311c.951-1.264 1.731-2.243 1.902-2.158zM297.19 211.213a10.351 10.351 0 01-2.082 5.172 19.684 19.684 0 012.082-5.172zM299.396 200.288a10.704 10.704 0 01-.761 5.524 18.575 18.575 0 01.761-5.524zM299.092 189.164c.161 0 .389 1.217.503 2.757.115 1.54.086 2.805-.076 2.805a13.544 13.544 0 01-.427-5.562zM296.686 178.258a13.56 13.56 0 011.455 5.391 13.572 13.572 0 01-1.455-5.391zM292.436 167.961a6.84 6.84 0 011.483 2.387c.467.822.762 1.731.865 2.671a6.957 6.957 0 01-1.388-2.433 7.081 7.081 0 01-.96-2.625zM289.748 163.045c.14-.082-.377-1.225-1.156-2.552-.778-1.328-1.523-2.337-1.663-2.255-.141.083.377 1.226 1.155 2.553s1.523 2.336 1.664 2.254zM284.088 153.423c.143-.079-.345-1.234-1.09-2.58-.745-1.347-1.464-2.374-1.607-2.295-.143.079.346 1.234 1.091 2.58s1.464 2.374 1.606 2.295zM277.033 138.297a13.513 13.513 0 011.902 5.219c-.143.067-.704-1.055-1.246-2.51-.542-1.455-.808-2.662-.656-2.709zM275.141 127.362c.321.881.489 1.81.494 2.748.193.919.224 1.865.096 2.795a10.458 10.458 0 01-.59-5.543zM276.063 116.238a8.14 8.14 0 01-.199 2.786 8.137 8.137 0 01-.609 2.729c-.233-1.881.046-3.79.808-5.525v.01zM279.695 105.713a8.17 8.17 0 01-.894 2.652 8.116 8.116 0 01-1.264 2.491c.237-1.877.98-3.655 2.149-5.143h.009zM285.914 96.48c.123.105-.618 1.113-1.55 2.33s-1.731 2.167-1.902 2.082a6.034 6.034 0 011.417-2.434c.95-1.236 1.902-2.082 2.035-1.977z"/></g><path d="M176.61 539.531h25.738a8.622 8.622 0 000-7.844c-2.092-4.402-14.261-9.907-21.031-3.527-2.482 2.339-5.572 7.083-5.572 8.623.023.98.323 1.932.865 2.748z" fill="#000D44"/></g></symbol>
</svg>